<svg id="visual" viewBox="0 0 4000 450" width="4000" height="450" xmlns="http://www.w3.org/2000/svg" xmlns:xlink="http://www.w3.org/1999/xlink" version="1.1"><path d="M0 75L74 72.8C148 70.7 296 66.3 444.2 74.7C592.3 83 740.7 104 888.8 109.2C1037 114.3 1185 103.7 1333.2 98.8C1481.3 94 1629.7 95 1777.8 91C1926 87 2074 78 2222.2 76.7C2370.3 75.3 2518.7 81.7 2666.8 91.8C2815 102 2963 116 3111.2 114.7C3259.3 113.3 3407.7 96.7 3555.8 97.5C3704 98.3 3852 116.7 3926 125.8L4000 135L4000 451L3926 451C3852 451 3704 451 3555.8 451C3407.7 451 3259.3 451 3111.2 451C2963 451 2815 451 2666.8 451C2518.7 451 2370.3 451 2222.2 451C2074 451 1926 451 1777.8 451C1629.7 451 1481.3 451 1333.2 451C1185 451 1037 451 888.8 451C740.7 451 592.3 451 444.2 451C296 451 148 451 74 451L0 451Z" fill="#ffffff"></path><path d="M0 140L74 141C148 142 296 144 444.2 144C592.3 144 740.7 142 888.8 136C1037 130 1185 120 1333.2 115.7C1481.3 111.3 1629.7 112.7 1777.8 118.8C1926 125 2074 136 2222.2 144.8C2370.3 153.7 2518.7 160.3 2666.8 156C2815 151.7 2963 136.3 3111.2 134.7C3259.3 133 3407.7 145 3555.8 147.2C3704 149.3 3852 141.7 3926 137.8L4000 134L4000 451L3926 451C3852 451 3704 451 3555.8 451C3407.7 451 3259.3 451 3111.2 451C2963 451 2815 451 2666.8 451C2518.7 451 2370.3 451 2222.2 451C2074 451 1926 451 1777.8 451C1629.7 451 1481.3 451 1333.2 451C1185 451 1037 451 888.8 451C740.7 451 592.3 451 444.2 451C296 451 148 451 74 451L0 451Z" fill="#fff7e6"></path><path d="M0 190L74 189.7C148 189.3 296 188.7 444.2 183.5C592.3 178.3 740.7 168.7 888.8 169C1037 169.3 1185 179.7 1333.2 183.7C1481.3 187.7 1629.7 185.3 1777.8 185.7C1926 186 2074 189 2222.2 188.3C2370.3 187.7 2518.7 183.3 2666.8 178.2C2815 173 2963 167 3111.2 165.2C3259.3 163.3 3407.7 165.7 3555.8 165.8C3704 166 3852 164 3926 163L4000 162L4000 451L3926 451C3852 451 3704 451 3555.8 451C3407.7 451 3259.3 451 3111.2 451C2963 451 2815 451 2666.8 451C2518.7 451 2370.3 451 2222.2 451C2074 451 1926 451 1777.8 451C1629.7 451 1481.3 451 1333.2 451C1185 451 1037 451 888.8 451C740.7 451 592.3 451 444.2 451C296 451 148 451 74 451L0 451Z" fill="#ffeecc"></path><path d="M0 212L74 209.8C148 207.7 296 203.3 444.2 200.3C592.3 197.3 740.7 195.7 888.8 193.2C1037 190.7 1185 187.3 1333.2 185.7C1481.3 184 1629.7 184 1777.8 191.3C1926 198.7 2074 213.3 2222.2 217C2370.3 220.7 2518.7 213.3 2666.8 210.2C2815 207 2963 208 3111.2 210.7C3259.3 213.3 3407.7 217.7 3555.8 220.3C3704 223 3852 224 3926 224.5L4000 225L4000 451L3926 451C3852 451 3704 451 3555.8 451C3407.7 451 3259.3 451 3111.2 451C2963 451 2815 451 2666.8 451C2518.7 451 2370.3 451 2222.2 451C2074 451 1926 451 1777.8 451C1629.7 451 1481.3 451 1333.2 451C1185 451 1037 451 888.8 451C740.7 451 592.3 451 444.2 451C296 451 148 451 74 451L0 451Z" fill="#ffe6b3"></path><path d="M0 271L74 268.7C148 266.3 296 261.7 444.2 256.2C592.3 250.7 740.7 244.3 888.8 246.8C1037 249.3 1185 260.7 1333.2 260.5C1481.3 260.3 1629.7 248.7 1777.8 243.2C1926 237.7 2074 238.3 2222.2 245C2370.3 251.7 2518.7 264.3 2666.8 271C2815 277.7 2963 278.3 3111.2 274.7C3259.3 271 3407.7 263 3555.8 257.5C3704 252 3852 249 3926 247.5L4000 246L4000 451L3926 451C3852 451 3704 451 3555.8 451C3407.7 451 3259.3 451 3111.2 451C2963 451 2815 451 2666.8 451C2518.7 451 2370.3 451 2222.2 451C2074 451 1926 451 1777.8 451C1629.7 451 1481.3 451 1333.2 451C1185 451 1037 451 888.8 451C740.7 451 592.3 451 444.2 451C296 451 148 451 74 451L0 451Z" fill="#ffde9a"></path><path d="M0 313L74 307.5C148 302 296 291 444.2 283.7C592.3 276.3 740.7 272.7 888.8 276.8C1037 281 1185 293 1333.2 300.7C1481.3 308.3 1629.7 311.7 1777.8 307.2C1926 302.7 2074 290.3 2222.2 284.8C2370.3 279.3 2518.7 280.7 2666.8 280.7C2815 280.7 2963 279.3 3111.2 280.7C3259.3 282 3407.7 286 3555.8 291.8C3704 297.7 3852 305.3 3926 309.2L4000 313L4000 451L3926 451C3852 451 3704 451 3555.8 451C3407.7 451 3259.3 451 3111.2 451C2963 451 2815 451 2666.8 451C2518.7 451 2370.3 451 2222.2 451C2074 451 1926 451 1777.8 451C1629.7 451 1481.3 451 1333.2 451C1185 451 1037 451 888.8 451C740.7 451 592.3 451 444.2 451C296 451 148 451 74 451L0 451Z" fill="#ffd680"></path><path d="M0 348L74 341.3C148 334.7 296 321.3 444.2 316.8C592.3 312.3 740.7 316.7 888.8 316.3C1037 316 1185 311 1333.2 309.2C1481.3 307.3 1629.7 308.7 1777.8 313.8C1926 319 2074 328 2222.2 330.3C2370.3 332.7 2518.7 328.3 2666.8 327.3C2815 326.3 2963 328.7 3111.2 326.3C3259.3 324 3407.7 317 3555.8 316.2C3704 315.3 3852 320.7 3926 323.3L4000 326L4000 451L3926 451C3852 451 3704 451 3555.8 451C3407.7 451 3259.3 451 3111.2 451C2963 451 2815 451 2666.8 451C2518.7 451 2370.3 451 2222.2 451C2074 451 1926 451 1777.8 451C1629.7 451 1481.3 451 1333.2 451C1185 451 1037 451 888.8 451C740.7 451 592.3 451 444.2 451C296 451 148 451 74 451L0 451Z" fill="#fecf66"></path><path d="M0 381L74 376.3C148 371.7 296 362.3 444.2 360C592.3 357.7 740.7 362.3 888.8 367.3C1037 372.3 1185 377.7 1333.2 377.2C1481.3 376.7 1629.7 370.3 1777.8 364.2C1926 358 2074 352 2222.2 353.5C2370.3 355 2518.7 364 2666.8 365C2815 366 2963 359 3111.2 359C3259.3 359 3407.7 366 3555.8 366.5C3704 367 3852 361 3926 358L4000 355L4000 451L3926 451C3852 451 3704 451 3555.8 451C3407.7 451 3259.3 451 3111.2 451C2963 451 2815 451 2666.8 451C2518.7 451 2370.3 451 2222.2 451C2074 451 1926 451 1777.8 451C1629.7 451 1481.3 451 1333.2 451C1185 451 1037 451 888.8 451C740.7 451 592.3 451 444.2 451C296 451 148 451 74 451L0 451Z" fill="#fdc749"></path><path d="M0 417L74 416.7C148 416.3 296 415.7 444.2 412.7C592.3 409.7 740.7 404.3 888.8 403.3C1037 402.3 1185 405.7 1333.2 409.2C1481.3 412.7 1629.7 416.3 1777.8 417C1926 417.7 2074 415.3 2222.2 410.7C2370.3 406 2518.7 399 2666.8 397.3C2815 395.7 2963 399.3 3111.2 401C3259.3 402.7 3407.7 402.3 3555.8 403.5C3704 404.7 3852 407.3 3926 408.7L4000 410L4000 451L3926 451C3852 451 3704 451 3555.8 451C3407.7 451 3259.3 451 3111.2 451C2963 451 2815 451 2666.8 451C2518.7 451 2370.3 451 2222.2 451C2074 451 1926 451 1777.8 451C1629.7 451 1481.3 451 1333.2 451C1185 451 1037 451 888.8 451C740.7 451 592.3 451 444.2 451C296 451 148 451 74 451L0 451Z" fill="#fbbf24"></path></svg>