<svg id="visual" viewBox="0 0 4000 450" width="4000" height="450" xmlns="http://www.w3.org/2000/svg" xmlns:xlink="http://www.w3.org/1999/xlink" version="1.1"><path d="M0 352L74 353.3C148 354.7 296 357.3 444.2 351.3C592.3 345.3 740.7 330.7 888.8 325.3C1037 320 1185 324 1333.2 323.3C1481.3 322.7 1629.7 317.3 1777.8 323.2C1926 329 2074 346 2222.2 349.2C2370.3 352.3 2518.7 341.7 2666.8 339C2815 336.3 2963 341.7 3111.2 346.5C3259.3 351.3 3407.7 355.7 3555.8 352.7C3704 349.7 3852 339.3 3926 334.2L4000 329L4000 0L3926 0C3852 0 3704 0 3555.8 0C3407.7 0 3259.3 0 3111.2 0C2963 0 2815 0 2666.8 0C2518.7 0 2370.3 0 2222.2 0C2074 0 1926 0 1777.8 0C1629.7 0 1481.3 0 1333.2 0C1185 0 1037 0 888.8 0C740.7 0 592.3 0 444.2 0C296 0 148 0 74 0L0 0Z" fill="#ffffff"></path><path d="M0 310L74 312.7C148 315.3 296 320.7 444.2 325.2C592.3 329.7 740.7 333.3 888.8 330.2C1037 327 1185 317 1333.2 316.2C1481.3 315.3 1629.7 323.7 1777.8 324.5C1926 325.3 2074 318.7 2222.2 315.3C2370.3 312 2518.7 312 2666.8 315C2815 318 2963 324 3111.2 326.7C3259.3 329.3 3407.7 328.7 3555.8 320.8C3704 313 3852 298 3926 290.5L4000 283L4000 0L3926 0C3852 0 3704 0 3555.8 0C3407.7 0 3259.3 0 3111.2 0C2963 0 2815 0 2666.8 0C2518.7 0 2370.3 0 2222.2 0C2074 0 1926 0 1777.8 0C1629.7 0 1481.3 0 1333.2 0C1185 0 1037 0 888.8 0C740.7 0 592.3 0 444.2 0C296 0 148 0 74 0L0 0Z" fill="#fff7e6"></path><path d="M0 300L74 293.8C148 287.7 296 275.3 444.2 267C592.3 258.7 740.7 254.3 888.8 255.5C1037 256.7 1185 263.3 1333.2 265.2C1481.3 267 1629.7 264 1777.8 266.5C1926 269 2074 277 2222.2 284.2C2370.3 291.3 2518.7 297.7 2666.8 298.8C2815 300 2963 296 3111.2 295.2C3259.3 294.3 3407.7 296.7 3555.8 288.7C3704 280.7 3852 262.3 3926 253.2L4000 244L4000 0L3926 0C3852 0 3704 0 3555.8 0C3407.7 0 3259.3 0 3111.2 0C2963 0 2815 0 2666.8 0C2518.7 0 2370.3 0 2222.2 0C2074 0 1926 0 1777.8 0C1629.7 0 1481.3 0 1333.2 0C1185 0 1037 0 888.8 0C740.7 0 592.3 0 444.2 0C296 0 148 0 74 0L0 0Z" fill="#ffeecc"></path><path d="M0 259L74 253.7C148 248.3 296 237.7 444.2 237.3C592.3 237 740.7 247 888.8 244.2C1037 241.3 1185 225.7 1333.2 217C1481.3 208.3 1629.7 206.7 1777.8 214.2C1926 221.7 2074 238.3 2222.2 243.3C2370.3 248.3 2518.7 241.7 2666.8 239.5C2815 237.3 2963 239.7 3111.2 234.5C3259.3 229.3 3407.7 216.7 3555.8 216C3704 215.3 3852 226.7 3926 232.3L4000 238L4000 0L3926 0C3852 0 3704 0 3555.8 0C3407.7 0 3259.3 0 3111.2 0C2963 0 2815 0 2666.8 0C2518.7 0 2370.3 0 2222.2 0C2074 0 1926 0 1777.8 0C1629.7 0 1481.3 0 1333.2 0C1185 0 1037 0 888.8 0C740.7 0 592.3 0 444.2 0C296 0 148 0 74 0L0 0Z" fill="#ffe6b3"></path><path d="M0 180L74 185.2C148 190.3 296 200.7 444.2 207.7C592.3 214.7 740.7 218.3 888.8 219.3C1037 220.3 1185 218.7 1333.2 218.8C1481.3 219 1629.7 221 1777.8 213.2C1926 205.3 2074 187.7 2222.2 182.5C2370.3 177.3 2518.7 184.7 2666.8 188.8C2815 193 2963 194 3111.2 192C3259.3 190 3407.7 185 3555.8 180.7C3704 176.3 3852 172.7 3926 170.8L4000 169L4000 0L3926 0C3852 0 3704 0 3555.8 0C3407.7 0 3259.3 0 3111.2 0C2963 0 2815 0 2666.8 0C2518.7 0 2370.3 0 2222.2 0C2074 0 1926 0 1777.8 0C1629.7 0 1481.3 0 1333.2 0C1185 0 1037 0 888.8 0C740.7 0 592.3 0 444.2 0C296 0 148 0 74 0L0 0Z" fill="#ffde9a"></path><path d="M0 163L74 158.7C148 154.3 296 145.7 444.2 144.8C592.3 144 740.7 151 888.8 155C1037 159 1185 160 1333.2 161.2C1481.3 162.3 1629.7 163.7 1777.8 165.7C1926 167.7 2074 170.3 2222.2 170.5C2370.3 170.7 2518.7 168.3 2666.8 168.3C2815 168.3 2963 170.7 3111.2 171.7C3259.3 172.7 3407.7 172.3 3555.8 174C3704 175.7 3852 179.3 3926 181.2L4000 183L4000 0L3926 0C3852 0 3704 0 3555.8 0C3407.7 0 3259.3 0 3111.2 0C2963 0 2815 0 2666.8 0C2518.7 0 2370.3 0 2222.2 0C2074 0 1926 0 1777.8 0C1629.7 0 1481.3 0 1333.2 0C1185 0 1037 0 888.8 0C740.7 0 592.3 0 444.2 0C296 0 148 0 74 0L0 0Z" fill="#ffd680"></path><path d="M0 109L74 113.7C148 118.3 296 127.7 444.2 128.8C592.3 130 740.7 123 888.8 122.5C1037 122 1185 128 1333.2 131.3C1481.3 134.7 1629.7 135.3 1777.8 131.5C1926 127.7 2074 119.3 2222.2 117.5C2370.3 115.7 2518.7 120.3 2666.8 122.2C2815 124 2963 123 3111.2 123.2C3259.3 123.3 3407.7 124.7 3555.8 124.8C3704 125 3852 124 3926 123.5L4000 123L4000 0L3926 0C3852 0 3704 0 3555.8 0C3407.7 0 3259.3 0 3111.2 0C2963 0 2815 0 2666.8 0C2518.7 0 2370.3 0 2222.2 0C2074 0 1926 0 1777.8 0C1629.7 0 1481.3 0 1333.2 0C1185 0 1037 0 888.8 0C740.7 0 592.3 0 444.2 0C296 0 148 0 74 0L0 0Z" fill="#fecf66"></path><path d="M0 97L74 97C148 97 296 97 444.2 92.8C592.3 88.7 740.7 80.3 888.8 76.8C1037 73.3 1185 74.7 1333.2 77C1481.3 79.3 1629.7 82.7 1777.8 81C1926 79.3 2074 72.7 2222.2 71.8C2370.3 71 2518.7 76 2666.8 78.8C2815 81.7 2963 82.3 3111.2 81.5C3259.3 80.7 3407.7 78.3 3555.8 79.2C3704 80 3852 84 3926 86L4000 88L4000 0L3926 0C3852 0 3704 0 3555.8 0C3407.7 0 3259.3 0 3111.2 0C2963 0 2815 0 2666.8 0C2518.7 0 2370.3 0 2222.2 0C2074 0 1926 0 1777.8 0C1629.7 0 1481.3 0 1333.2 0C1185 0 1037 0 888.8 0C740.7 0 592.3 0 444.2 0C296 0 148 0 74 0L0 0Z" fill="#fdc749"></path><path d="M0 62L74 57.5C148 53 296 44 444.2 42.7C592.3 41.3 740.7 47.7 888.8 50.7C1037 53.7 1185 53.3 1333.2 54.2C1481.3 55 1629.7 57 1777.8 52.8C1926 48.7 2074 38.3 2222.2 35.5C2370.3 32.7 2518.7 37.3 2666.8 38.7C2815 40 2963 38 3111.2 35.8C3259.3 33.7 3407.7 31.3 3555.8 30.2C3704 29 3852 29 3926 29L4000 29L4000 0L3926 0C3852 0 3704 0 3555.8 0C3407.7 0 3259.3 0 3111.2 0C2963 0 2815 0 2666.8 0C2518.7 0 2370.3 0 2222.2 0C2074 0 1926 0 1777.8 0C1629.7 0 1481.3 0 1333.2 0C1185 0 1037 0 888.8 0C740.7 0 592.3 0 444.2 0C296 0 148 0 74 0L0 0Z" fill="#fbbf24"></path></svg>